<?xml version="1.0" standalone="no"?>
<!DOCTYPE svg PUBLIC "-//W3C//DTD SVG 20010904//EN"
 "http://www.w3.org/TR/2001/REC-SVG-20010904/DTD/svg10.dtd">
<svg version="1.0" xmlns="http://www.w3.org/2000/svg"
 width="465.000000pt" height="320.000000pt" viewBox="0 0 465.000000 320.000000"
 preserveAspectRatio="xMidYMid meet">

<g transform="translate(0.000000,320.000000) scale(0.100000,-0.100000)"
fill="#000000" stroke="none">
<path d="M2290 3129 c-163 -21 -449 -97 -615 -164 -119 -48 -260 -124 -365
-196 -297 -204 -507 -520 -565 -853 -17 -101 -20 -297 -5 -377 11 -59 42 -99
77 -99 28 0 30 9 37 172 21 486 280 899 696 1108 153 77 327 127 330 95 1 -5
-72 -42 -162 -80 -242 -104 -325 -160 -462 -311 -141 -155 -229 -307 -282
-489 -35 -122 -48 -342 -34 -600 10 -187 19 -240 64 -364 22 -60 101 -195 145
-250 58 -71 217 -207 336 -286 162 -109 239 -142 407 -176 79 -16 144 -29 146
-29 1 0 2 -7 2 -16 0 -14 -12 -16 -97 -12 -122 6 -287 55 -448 132 -169 81
-261 161 -443 384 -120 147 -144 165 -162 117 -48 -127 226 -484 467 -608 437
-224 914 -221 1436 8 254 112 436 272 618 544 88 130 121 196 164 325 59 175
68 234 68 416 -1 470 -61 697 -247 939 -55 71 -215 207 -306 261 -78 46 -251
124 -306 139 -21 6 -77 15 -123 20 -61 7 -89 14 -103 29 -30 29 -14 42 52 42
125 0 256 -40 437 -135 163 -85 249 -144 348 -237 223 -211 334 -489 355 -888
22 -436 -59 -738 -275 -1035 -103 -142 -224 -254 -402 -373 -148 -99 -178
-127 -147 -139 117 -45 562 287 781 583 117 159 174 292 224 529 22 101 24
134 24 390 0 276 0 282 -28 385 -43 158 -74 244 -132 361 -131 265 -284 434
-513 568 -119 69 -311 134 -497 167 -88 15 -384 17 -495 3z m338 -578 c7 -4
25 -54 40 -111 l27 -103 165 -56 c184 -63 338 -132 371 -167 19 -20 20 -25 7
-51 l-13 -28 -345 -6 c-404 -7 -589 -24 -1156 -105 -210 -30 -393 -54 -407
-54 -29 0 -40 11 -32 32 13 33 307 204 470 273 l100 42 75 109 76 109 89 17
c50 10 173 35 275 57 102 22 196 42 210 44 14 3 27 5 30 5 3 1 11 -2 18 -7z
m-490 -652 c4 -24 -105 -168 -134 -175 -86 -22 -65 90 29 155 66 44 99 51 105
20z m-381 -135 c140 -80 96 -259 -82 -340 -57 -26 -129 -34 -147 -16 -8 8 -6
13 8 18 101 35 178 91 190 140 15 59 -21 101 -96 111 -37 5 -40 4 -40 -19 0
-50 -159 -476 -203 -544 -25 -39 -55 -53 -69 -33 -36 53 70 399 164 533 l41
58 -30 -6 c-21 -5 -34 -2 -43 9 -30 36 39 96 133 115 59 11 125 2 174 -26z
m934 26 c12 -7 19 -21 19 -41 0 -24 -17 -48 -90 -123 l-90 -93 78 -7 c100 -9
112 -4 112 45 0 112 120 209 277 225 88 8 96 -1 68 -84 -19 -53 -19 -55 0 -68
10 -8 26 -14 36 -14 9 0 22 -7 29 -16 31 -37 -66 -68 -138 -45 -36 12 -40 11
-91 -23 -43 -29 -62 -36 -102 -36 -34 0 -58 -6 -77 -20 -34 -25 -105 -37 -249
-43 -124 -5 -135 0 -108 53 13 24 110 119 183 177 23 18 22 18 -55 15 -68 -3
-81 -1 -97 17 -11 12 -15 27 -11 40 5 17 15 21 53 21 26 1 76 7 112 14 83 17
117 19 141 6z m-331 -105 c20 -24 -6 -70 -85 -155 -111 -118 -110 -108 -3
-108 51 0 115 -5 141 -10 36 -7 67 -6 119 5 39 8 73 12 76 8 12 -11 -15 -39
-58 -62 -39 -21 -57 -23 -177 -23 -133 0 -247 -12 -311 -32 -18 -5 -44 -7 -58
-4 -19 5 -24 13 -24 38 0 27 17 47 120 147 66 64 120 119 120 123 0 3 -17 2
-37 -4 -41 -11 -97 -5 -119 13 -8 6 -14 22 -14 34 0 22 5 24 88 30 48 3 94 8
102 9 44 10 109 5 120 -9z m-359 -37 c11 -41 -6 -107 -55 -214 -24 -55 -47
-107 -50 -116 -3 -10 -14 -18 -24 -18 -46 0 -70 70 -48 142 16 54 142 241 159
235 6 -2 14 -15 18 -29z m849 -263 c10 -13 10 -23 -5 -55 -10 -22 -15 -43 -12
-46 4 -4 45 3 91 15 94 23 126 26 126 11 0 -13 -79 -52 -178 -86 l-82 -29 -29
-75 c-16 -41 -39 -106 -51 -145 -13 -38 -29 -83 -37 -99 -14 -27 -16 -27 -31
-12 -28 28 -15 190 23 289 6 13 2 17 -18 17 -14 0 -35 9 -48 19 -20 16 -22 23
-13 38 8 13 26 19 70 21 59 3 60 3 82 45 23 44 77 107 91 107 5 0 14 -7 21
-15z m-660 -127 c0 -13 -9 -60 -19 -105 -18 -80 -18 -82 -1 -73 10 6 26 10 34
10 29 0 17 -26 -26 -56 -42 -29 -43 -33 -55 -109 -7 -43 -21 -94 -30 -114 -16
-32 -22 -36 -58 -36 l-40 0 0 83 c1 71 -1 82 -15 76 -8 -4 -41 -16 -73 -28
-53 -19 -58 -24 -68 -61 -28 -110 -50 -172 -69 -193 -24 -26 -75 -30 -84 -6
-10 27 -7 107 8 162 l13 52 -26 6 c-32 8 -71 31 -71 44 0 18 33 40 84 55 l53
16 51 103 c50 103 112 186 138 186 23 0 17 -64 -16 -162 -16 -49 -30 -91 -30
-94 0 -7 37 -4 88 7 l50 12 31 82 c37 97 83 165 111 165 14 0 20 -7 20 -22z
m374 -65 c4 -9 1 -52 -5 -95 -6 -44 -9 -99 -6 -123 3 -30 0 -48 -9 -55 -20
-18 -62 16 -76 61 l-11 39 -44 -46 c-24 -25 -65 -55 -90 -66 -45 -20 -46 -20
-72 -1 -33 25 -36 52 -13 136 17 60 18 68 4 76 -26 15 -6 41 31 41 59 0 71
-17 65 -93 l-6 -67 27 19 c32 24 97 92 140 149 35 45 55 53 65 25z"/>
<path d="M2907 1699 c-45 -24 -86 -82 -62 -87 27 -6 99 44 112 77 14 37 5 39
-50 10z"/>
<path d="M742 1312 c-47 -7 -66 -112 -41 -222 15 -68 74 -120 134 -120 39 0
50 34 36 112 -6 36 -11 80 -11 99 0 19 -10 55 -22 79 -24 45 -49 59 -96 52z"/>
</g>
</svg>
